<svg xmlns="http://www.w3.org/2000/svg" xmlns:xlink="http://www.w3.org/1999/xlink" id="exportSvg" width="585" height="300"><defs/><g><g id="__svelte-dw-svg" clip-path="url(#rect-mask-HNF-OtOe-J51EtgV-DY8j)"><clipPath id="rect-mask-HNF-OtOe-J51EtgV-DY8j"><rect x="0" y="0" width="585" height="268"/></clipPath><g id="container-svg container-body-svg datawrapper-5xC19-1gvfeww-svg"><g id="container-svg container-bodyTop-svg datawrapper-5xC19-lmtz6e-svg"><g id="container-svg container-bodyCenter-svg datawrapper-5xC19-1fgvipr-svg"><g id="chart-svg"><g id="table-svg"><g id="tbody-svg"><g id="row-svg" clip-path="url(#rect-mask-q0qXlyuJkYitowBY3aZrQ)"><clipPath id="rect-mask-q0qXlyuJkYitowBY3aZrQ"><rect x="0" y="46" width="585" height="36"/></clipPath><g id="cell-svg"><text transform="translate(0, 46)"><tspan fill="rgb(24,24,24)" x="0" y="24" style="font-family: Roboto; font-weight: 300; font-stretch: 100%; font-size: 14px;">Manhattan</tspan></text></g><g id="cell-svg"><rect width="469.625" height="20" transform="translate(99.375, 54)" fill="rgba(0,0,0,0.067)" style="fill: rgb(0, 0, 0); fill-opacity: 0.067;"/><rect width="0" height="0" transform="translate(0, 0)" fill="none" style="fill: none;"/><path d="M 0 0 v 0" style="fill: none; stroke-width: 1; stroke: rgba(0, 0, 0, 0.6);"/><rect width="469.625" height="20" transform="translate(99.375, 54)" fill="rgb(228,86,46)" style="fill: rgb(228, 86, 46);"/><text transform="translate(566, 54)" style="text-anchor: end;"><tspan fill="rgb(255,255,255)" x="0" y="14.9" style="font-family: Roboto; font-weight: 300; font-stretch: 100%; font-size: 11.9px;">14,2%</tspan></text></g></g><g id="row-svg" clip-path="url(#rect-mask-wIGhKDgcr7Bn_MDZ47T9Z)"><clipPath id="rect-mask-wIGhKDgcr7Bn_MDZ47T9Z"><rect x="0" y="82" width="585" height="37"/></clipPath><g id="cell-svg"><text transform="translate(0, 82)"><tspan fill="rgb(24,24,24)" x="0" y="25" style="font-family: Roboto; font-weight: 300; font-stretch: 100%; font-size: 14px;">Brooklyn</tspan></text></g><g id="cell-svg"><rect width="469.625" height="20" transform="translate(99.375, 91)" fill="rgba(0,0,0,0.067)" style="fill: rgb(0, 0, 0); fill-opacity: 0.067;"/><rect width="0" height="0" transform="translate(0, 0)" fill="none" style="fill: none;"/><path d="M 0 0 v 0" style="fill: none; stroke-width: 1; stroke: rgba(0, 0, 0, 0.6);"/><rect width="393.546875" height="20" transform="translate(99.375, 91)" fill="rgb(228,86,46)" style="fill: rgb(228, 86, 46);"/><text transform="translate(489.921875, 91)" style="text-anchor: end;"><tspan fill="rgb(255,255,255)" x="0" y="14.9" style="font-family: Roboto; font-weight: 300; font-stretch: 100%; font-size: 11.9px;">11,9%</tspan></text></g></g><g id="row-svg" clip-path="url(#rect-mask-uQxOmCdWbc8ZsAcMhpaWR)"><clipPath id="rect-mask-uQxOmCdWbc8ZsAcMhpaWR"><rect x="0" y="119" width="585" height="37"/></clipPath><g id="cell-svg"><text transform="translate(0, 119)"><tspan fill="rgb(24,24,24)" x="0" y="25" style="font-family: Roboto; font-weight: 300; font-stretch: 100%; font-size: 14px;">Queens</tspan></text></g><g id="cell-svg"><rect width="469.625" height="20" transform="translate(99.375, 128)" fill="rgba(0,0,0,0.067)" style="fill: rgb(0, 0, 0); fill-opacity: 0.067;"/><rect width="0" height="0" transform="translate(0, 0)" fill="none" style="fill: none;"/><path d="M 0 0 v 0" style="fill: none; stroke-width: 1; stroke: rgba(0, 0, 0, 0.6);"/><rect width="287.71875" height="20" transform="translate(99.375, 128)" fill="rgb(228,86,46)" style="fill: rgb(228, 86, 46);"/><text transform="translate(384.09375, 128)" style="text-anchor: end;"><tspan fill="rgb(255,255,255)" x="0" y="14.9" style="font-family: Roboto; font-weight: 300; font-stretch: 100%; font-size: 11.9px;">8,7%</tspan></text></g></g><g id="row-svg" clip-path="url(#rect-mask-c1_nq197IYBUadi8th81n)"><clipPath id="rect-mask-c1_nq197IYBUadi8th81n"><rect x="0" y="156" width="585" height="37"/></clipPath><g id="cell-svg"><text transform="translate(0, 156)"><tspan fill="rgb(24,24,24)" x="0" y="25" style="font-family: Roboto; font-weight: 300; font-stretch: 100%; font-size: 14px;">Staten</tspan></text></g><g id="cell-svg"><rect width="469.625" height="20" transform="translate(99.375, 165)" fill="rgba(0,0,0,0.067)" style="fill: rgb(0, 0, 0); fill-opacity: 0.067;"/><rect width="0" height="0" transform="translate(0, 0)" fill="none" style="fill: none;"/><path d="M 0 0 v 0" style="fill: none; stroke-width: 1; stroke: rgba(0, 0, 0, 0.6);"/><rect width="281.109375" height="20" transform="translate(99.375, 165)" fill="rgb(228,86,46)" style="fill: rgb(228, 86, 46);"/><text transform="translate(377.484375, 165)" style="text-anchor: end;"><tspan fill="rgb(255,255,255)" x="0" y="14.9" style="font-family: Roboto; font-weight: 300; font-stretch: 100%; font-size: 11.9px;">8,5%</tspan></text></g></g><g id="row-svg" clip-path="url(#rect-mask-claKnV4S2EVjF7cyhbPNe)"><clipPath id="rect-mask-claKnV4S2EVjF7cyhbPNe"><rect x="0" y="193" width="585" height="37"/></clipPath><g id="cell-svg"><text transform="translate(0, 193)"><tspan fill="rgb(24,24,24)" x="0" y="25" style="font-family: Roboto; font-weight: 300; font-stretch: 100%; font-size: 14px;">Bronx</tspan></text></g><g id="cell-svg"><rect width="469.625" height="20" transform="translate(99.375, 202)" fill="rgba(0,0,0,0.067)" style="fill: rgb(0, 0, 0); fill-opacity: 0.067;"/><rect width="0" height="0" transform="translate(0, 0)" fill="none" style="fill: none;"/><path d="M 0 0 v 0" style="fill: none; stroke-width: 1; stroke: rgba(0, 0, 0, 0.6);"/><rect width="271.1875" height="20" transform="translate(99.375, 202)" fill="rgb(228,86,46)" style="fill: rgb(228, 86, 46);"/><text transform="translate(367.5625, 202)" style="text-anchor: end;"><tspan fill="rgb(255,255,255)" x="0" y="14.9" style="font-family: Roboto; font-weight: 300; font-stretch: 100%; font-size: 11.9px;">8,2%</tspan></text></g></g><g id="row-svg" clip-path="url(#rect-mask-bsyJGbHvYZ_TUP-C6kXvf)"><clipPath id="rect-mask-bsyJGbHvYZ_TUP-C6kXvf"><rect x="0" y="230" width="585" height="38"/></clipPath><g id="cell-svg"><text transform="translate(0, 230)"><tspan fill="rgb(24,24,24)" x="0" y="26" style="font-family: Roboto; font-weight: 300; font-stretch: 100%; font-size: 14px;">NYC</tspan></text></g><g id="cell-svg"><rect width="469.625" height="20" transform="translate(99.375, 240)" fill="rgba(0,0,0,0.067)" style="fill: rgb(0, 0, 0); fill-opacity: 0.067;"/><rect width="0" height="0" transform="translate(0, 0)" fill="none" style="fill: none;"/><path d="M 0 0 v 0" style="fill: none; stroke-width: 1; stroke: rgba(0, 0, 0, 0.6);"/><rect width="367.09375" height="20" transform="translate(99.375, 240)" fill="rgb(228,86,46)" style="fill: rgb(228, 86, 46);"/><text transform="translate(463.46875, 240)" style="text-anchor: end;"><tspan fill="rgb(255,255,255)" x="0" y="14.9" style="font-family: Roboto; font-weight: 300; font-stretch: 100%; font-size: 11.9px;">11,1%</tspan></text></g></g><g id="borders-svg"><line x1="0" x2="83.375" y1="82" y2="82" style="fill: none; stroke-width: 1; stroke: rgba(0, 0, 0, 0.067);"/><line x1="83.375" x2="585" y1="82" y2="82" style="fill: none; stroke-width: 1; stroke: rgba(0, 0, 0, 0.067);"/><line x1="0" x2="83.375" y1="119" y2="119" style="fill: none; stroke-width: 1; stroke: rgba(0, 0, 0, 0.067);"/><line x1="83.375" x2="585" y1="119" y2="119" style="fill: none; stroke-width: 1; stroke: rgba(0, 0, 0, 0.067);"/><line x1="0" x2="83.375" y1="156" y2="156" style="fill: none; stroke-width: 1; stroke: rgba(0, 0, 0, 0.067);"/><line x1="83.375" x2="585" y1="156" y2="156" style="fill: none; stroke-width: 1; stroke: rgba(0, 0, 0, 0.067);"/><line x1="0" x2="83.375" y1="193" y2="193" style="fill: none; stroke-width: 1; stroke: rgba(0, 0, 0, 0.067);"/><line x1="83.375" x2="585" y1="193" y2="193" style="fill: none; stroke-width: 1; stroke: rgba(0, 0, 0, 0.067);"/><line x1="0" x2="83.375" y1="230" y2="230" style="fill: none; stroke-width: 2; stroke: rgb(51, 51, 51);"/><line x1="83.375" x2="585" y1="230" y2="230" style="fill: none; stroke-width: 2; stroke: rgb(51, 51, 51);"/></g></g><g id="thead-svg"><g id="row-svg" clip-path="url(#rect-mask-GTExKJQlUnsrVJstUht1M)"><clipPath id="rect-mask-GTExKJQlUnsrVJstUht1M"><rect x="0" y="10" width="585" height="36"/></clipPath><g id="cell-svg"><text transform="translate(0, 10)"><tspan fill="rgb(24,24,24)" x="0" y="23.4" style="font-family: Roboto; font-weight: 700; font-stretch: 100%; font-size: 15.4px;">Borough</tspan></text></g><g id="cell-svg"><text transform="translate(99.375, 10)"><tspan fill="rgb(24,24,24)" x="0" y="23.4" style="font-family: Roboto; font-weight: 700; font-stretch: 100%; font-size: 15.4px;">Vacancy rate</tspan></text></g></g><g id="borders-svg"><line x1="0" x2="83.375" y1="46" y2="46" style="fill: none; stroke-width: 2; stroke: rgb(51, 51, 51);"/><line x1="83.375" x2="585" y1="46" y2="46" style="fill: none; stroke-width: 2; stroke: rgb(51, 51, 51);"/></g></g></g></g></g></g></g></g></g></svg>