<?xml version="1.0" encoding="UTF-8"?>
<svg id="exportSvg" xmlns="http://www.w3.org/2000/svg" xmlns:xlink="http://www.w3.org/1999/xlink" version="1.1" viewBox="0 0 320 142.56">
  <!-- Generator: Adobe Illustrator 29.6.1, SVG Export Plug-In . SVG Version: 2.1.1 Build 9)  -->
  <defs>
    <style>
      .st0 {
        fill: none;
      }

      .st1 {
        isolation: isolate;
      }

      .st2 {
        fill: #fff;
      }

      .st3 {
        fill: #e4572e;
      }

      .st4 {
        clip-path: url(#clippath);
      }

      .st5 {
        fill: #181818;
      }
    </style>
    <clipPath id="clippath">
      <polygon class="st0" points="0 0 320 0 316 145 -4 145 0 0"/>
    </clipPath>
  </defs>
  <rect class="st2" width="320" height="145"/>
  <g class="st4">
    <g id="__svelte-dw-svg">
      <g id="container-svg_container-body-svg_datawrapper-3QzoK-8pdpge-svg">
        <g id="container-svg_container-bodyTop-svg_datawrapper-3QzoK-lmtz6e-svg">
          <g id="container-svg_container-bodyCenter-svg_datawrapper-3QzoK-1fgvipr-svg">
            <g id="chart-svg">
              <g class="st1">
                <g class="st1">
                  <path class="st5" d="M2.83,6.27h.94l-.75,5.24-.57,3.29h-1.1l1.48-8.53ZM3.2,6.27h1.02l1.51,6.94,3.91-6.94h1.12l-4.85,8.53h-.84l-1.88-8.53ZM10.12,6.27h.95l-1.48,8.53h-1.1l.59-3.39,1.04-5.14Z"/>
                  <path class="st5" d="M15.83,10.95l-.12.76h-1c-.21,0-.43,0-.67.04s-.46.09-.67.18-.39.21-.53.37-.23.37-.26.63c-.02.21,0,.39.08.55s.19.27.35.36.34.13.54.13c.27,0,.54-.05.8-.16s.49-.27.69-.47.33-.44.4-.7l.39.52c-.07.26-.2.5-.36.71s-.37.4-.59.56-.47.28-.74.36-.52.13-.79.12c-.36,0-.68-.09-.96-.24s-.51-.37-.68-.64-.24-.6-.21-.96c.02-.4.13-.74.32-1.01s.43-.49.72-.66.62-.28.97-.35.7-.11,1.04-.11h1.29ZM15.18,13.71l.53-3.28c.03-.24,0-.46-.07-.64s-.19-.33-.36-.43-.37-.16-.62-.16c-.22,0-.43.03-.64.11s-.39.19-.54.33-.25.34-.3.56h-1.05c.03-.31.13-.59.3-.82s.39-.43.64-.59.54-.28.83-.35.59-.11.87-.11c.43,0,.8.1,1.11.27s.55.42.71.73.22.69.18,1.12l-.49,2.95c-.04.21-.06.43-.06.65s.02.43.07.64v.1s-1.08,0-1.08,0c-.04-.18-.06-.36-.06-.54s.01-.37.04-.54Z"/>
                  <path class="st5" d="M19.6,9.88l-.86,4.92h-1.06l1.1-6.34h1l-.19,1.42ZM19.11,11.39h-.43c.05-.39.16-.76.3-1.13s.34-.69.58-.99.53-.52.86-.69.72-.25,1.15-.24c.34,0,.62.07.85.2s.41.29.54.5.21.45.26.73.05.57.01.88l-.69,4.15h-1.07l.7-4.17c.03-.25.02-.48-.03-.69s-.14-.37-.29-.49-.37-.19-.65-.2c-.3,0-.56.05-.8.17s-.45.29-.62.5-.32.44-.43.7-.19.51-.23.78Z"/>
                  <path class="st5" d="M26.73,5.8l-1.56,9h-1.06l1.56-9h1.06ZM25.53,11.39h-.43c.05-.39.16-.76.3-1.13s.34-.69.58-.99.53-.52.86-.69.72-.25,1.15-.24c.34,0,.62.07.85.2s.41.29.54.5.21.45.26.73.05.57.01.88l-.69,4.15h-1.07l.7-4.17c.03-.25.02-.48-.03-.69s-.14-.37-.29-.49-.37-.19-.65-.2c-.3,0-.56.05-.8.17s-.45.29-.62.5-.32.44-.43.7-.19.51-.23.78Z"/>
                  <path class="st5" d="M35,10.95l-.12.76h-1c-.21,0-.43,0-.67.04s-.46.09-.67.18-.39.21-.53.37-.23.37-.26.63c-.02.21,0,.39.08.55s.19.27.35.36.34.13.54.13c.27,0,.54-.05.8-.16s.49-.27.69-.47.33-.44.4-.7l.39.52c-.07.26-.2.5-.36.71s-.37.4-.59.56-.47.28-.74.36-.52.13-.79.12c-.36,0-.68-.09-.96-.24s-.51-.37-.68-.64-.24-.6-.21-.96c.02-.4.13-.74.32-1.01s.43-.49.72-.66.62-.28.97-.35.7-.11,1.04-.11h1.29ZM34.35,13.71l.53-3.28c.03-.24,0-.46-.07-.64s-.19-.33-.36-.43-.37-.16-.62-.16c-.22,0-.43.03-.64.11s-.39.19-.54.33-.25.34-.3.56h-1.05c.03-.31.13-.59.3-.82s.39-.43.64-.59.54-.28.83-.35.59-.11.87-.11c.43,0,.8.1,1.11.27s.55.42.71.73.22.69.18,1.12l-.49,2.95c-.04.21-.06.43-.06.65s.02.43.07.64v.1s-1.08,0-1.08,0c-.04-.18-.06-.36-.06-.54s.01-.37.04-.54Z"/>
                  <path class="st5" d="M40.54,8.46l-.15.83h-3.33l.15-.83h3.33ZM38.6,6.92h1.05l-1.07,6.32c-.01.14,0,.26.01.37s.07.2.14.26.19.1.34.1c.09,0,.17,0,.25-.02s.17-.03.25-.04l-.08.89c-.12.04-.25.06-.38.08s-.26.02-.39.02c-.32,0-.58-.09-.76-.25s-.31-.37-.38-.62-.09-.53-.06-.81l1.06-6.3Z"/>
                  <path class="st5" d="M44.35,8.46l-.15.83h-3.33l.15-.83h3.33ZM42.41,6.92h1.05l-1.07,6.32c-.01.14,0,.26.01.37s.07.2.14.26.19.1.34.1c.09,0,.17,0,.25-.02s.17-.03.25-.04l-.08.89c-.12.04-.25.06-.38.08s-.26.02-.39.02c-.32,0-.58-.09-.76-.25s-.31-.37-.38-.62-.09-.53-.06-.81l1.06-6.3Z"/>
                  <path class="st5" d="M48.95,10.95l-.12.76h-1c-.21,0-.43,0-.67.04s-.46.09-.67.18-.39.21-.53.37-.23.37-.26.63c-.02.21,0,.39.08.55s.19.27.35.36.34.13.54.13c.27,0,.54-.05.8-.16s.49-.27.69-.47.33-.44.4-.7l.39.52c-.07.26-.2.5-.36.71s-.37.4-.59.56-.47.28-.74.36-.52.13-.79.12c-.36,0-.68-.09-.96-.24s-.51-.37-.68-.64-.24-.6-.21-.96c.02-.4.13-.74.32-1.01s.43-.49.72-.66.62-.28.97-.35.7-.11,1.04-.11h1.29ZM48.3,13.71l.53-3.28c.03-.24,0-.46-.07-.64s-.19-.33-.36-.43-.37-.16-.62-.16c-.22,0-.43.03-.64.11s-.39.19-.54.33-.25.34-.3.56h-1.05c.03-.31.13-.59.3-.82s.39-.43.64-.59.54-.28.83-.35.59-.11.87-.11c.43,0,.8.1,1.11.27s.55.42.71.73.22.69.18,1.12l-.49,2.95c-.04.21-.06.43-.06.65s.02.43.07.64v.1s-1.08,0-1.08,0c-.04-.18-.06-.36-.06-.54s.01-.37.04-.54Z"/>
                  <path class="st5" d="M52.72,9.88l-.86,4.92h-1.06l1.1-6.34h1l-.19,1.42ZM52.23,11.39h-.43c.05-.39.16-.76.3-1.13s.34-.69.58-.99.53-.52.86-.69.72-.25,1.15-.24c.34,0,.62.07.85.2s.41.29.54.5.21.45.26.73.05.57.01.88l-.69,4.15h-1.07l.7-4.17c.03-.25.02-.48-.03-.69s-.14-.37-.29-.49-.37-.19-.65-.2c-.3,0-.56.05-.8.17s-.45.29-.62.5-.32.44-.43.7-.19.51-.23.78Z"/>
                </g>
              </g>
              <rect class="st3" x="68.31" width="250.67" height="20"/>
              <g class="st1">
                <g class="st1">
                  <path class="st5" d="M5.05,34.81h-2.16l.15-.91h1.85c.3,0,.58-.05.85-.15s.49-.26.67-.47.29-.48.33-.8c.04-.3,0-.55-.09-.74s-.26-.32-.47-.4-.45-.13-.74-.14h-1.68s-1.32,7.6-1.32,7.6h-1.11l1.48-8.53h2.64c.36.01.68.06.99.15s.56.22.78.4.38.41.5.68.15.61.12,1c-.03.42-.16.77-.4,1.05s-.52.51-.87.67-.71.27-1.09.32l-.45.27ZM4.32,38.8H1.73l.78-.92h1.84c.33,0,.64-.05.92-.18s.51-.3.7-.53.3-.52.34-.87c.04-.3.01-.57-.07-.79s-.22-.39-.42-.51-.45-.18-.76-.2h-1.63s.17-.91.17-.91h2.08s.18.33.18.33c.35.05.65.18.89.37s.42.44.53.73.16.61.13.96c-.04.56-.21,1.02-.5,1.4s-.66.65-1.12.84-.94.28-1.46.27Z"/>
                  <path class="st5" d="M10.42,33.5l-.92,5.3h-1.06l1.1-6.34h1.03l-.15,1.04ZM12.48,32.4l-.1,1.02c-.08-.02-.17-.03-.25-.04s-.17-.02-.25-.02c-.25,0-.48.03-.68.11s-.38.19-.53.34-.29.31-.39.51-.19.41-.25.63l-.33.18c.04-.32.11-.64.21-.97s.24-.64.42-.92.4-.51.67-.68.6-.25.98-.24c.09,0,.17,0,.25.02s.17.04.25.06Z"/>
                  <path class="st5" d="M12.54,35.73l.02-.13c.05-.43.15-.84.32-1.23s.39-.75.66-1.05.6-.55.97-.73.79-.26,1.25-.25c.45,0,.83.1,1.15.29s.58.43.77.73.33.64.41,1.02.1.77.06,1.17v.13c-.06.43-.17.83-.34,1.22s-.39.74-.67,1.04-.6.54-.98.72-.79.25-1.25.24c-.44,0-.82-.1-1.14-.28s-.58-.42-.77-.72-.33-.64-.41-1.01-.1-.76-.06-1.16ZM13.62,35.6v.14c-.04.25-.04.5-.01.77s.09.51.19.74.25.41.44.56.44.22.74.23c.32,0,.61-.06.86-.19s.46-.32.63-.55.31-.49.42-.77.17-.56.21-.84v-.13c.04-.25.04-.5.01-.77s-.09-.52-.19-.75-.25-.42-.44-.57-.44-.22-.74-.23c-.32-.01-.61.05-.86.19s-.46.33-.63.56-.31.49-.41.78-.17.56-.21.84Z"/>
                  <path class="st5" d="M19.18,35.73l.02-.13c.05-.43.15-.84.32-1.23s.39-.75.66-1.05.6-.55.97-.73.79-.26,1.25-.25c.45,0,.83.1,1.15.29s.58.43.77.73.33.64.41,1.02.1.77.06,1.17v.13c-.06.43-.17.83-.34,1.22s-.39.74-.67,1.04-.6.54-.98.72-.79.25-1.25.24c-.44,0-.82-.1-1.14-.28s-.58-.42-.77-.72-.33-.64-.41-1.01-.1-.76-.06-1.16ZM20.25,35.6v.14c-.04.25-.04.5-.01.77s.09.51.19.74.25.41.44.56.44.22.74.23c.32,0,.61-.06.86-.19s.46-.32.63-.55.31-.49.42-.77.17-.56.21-.84v-.13c.04-.25.04-.5.01-.77s-.09-.52-.19-.75-.25-.42-.44-.57-.44-.22-.74-.23c-.32-.01-.61.05-.86.19s-.46.33-.63.56-.31.49-.41.78-.17.56-.21.84Z"/>
                  <path class="st5" d="M28.18,29.8l-1.56,9h-1.07l1.56-9h1.07ZM31.52,32.46l-3.14,2.91-1.89,1.71.13-1.25,1.27-1.29,2.26-2.07h1.38ZM29.45,38.8l-1.71-3.08.67-.91,2.2,3.99h-1.16Z"/>
                  <path class="st5" d="M34.16,29.8l-1.56,9h-1.06l1.56-9h1.07Z"/>
                  <path class="st5" d="M36.13,38.08l2.67-5.62h1.17l-3.72,7.32c-.1.21-.21.41-.34.6s-.28.36-.45.52-.35.27-.56.36-.44.13-.69.13c-.11,0-.21-.02-.32-.04s-.21-.04-.31-.06l.06-.89s.09.01.14.02.09.01.13.01c.26,0,.49-.03.68-.11s.35-.2.49-.36.26-.35.37-.57l.66-1.3ZM35.83,32.46l.76,4.98.07,1.12-.79.39-1.15-6.49h1.11Z"/>
                  <path class="st5" d="M41.7,33.88l-.86,4.92h-1.06l1.1-6.34h1l-.19,1.42ZM41.21,35.39h-.43c.05-.39.16-.76.3-1.13s.34-.69.58-.99.53-.52.86-.69.72-.25,1.15-.24c.34,0,.62.07.85.2s.41.29.54.5.21.45.26.73.05.57.01.88l-.69,4.15h-1.07l.7-4.17c.03-.25.02-.48-.03-.69s-.14-.37-.29-.49-.37-.19-.65-.2c-.3,0-.56.05-.8.17s-.45.29-.62.5-.32.44-.43.7-.19.51-.23.78Z"/>
                </g>
              </g>
              <rect class="st3" x="68.31" y="24" width="210.08" height="20"/>
              <g class="st1">
                <g class="st1">
                  <path class="st5" d="M8.45,58.26l-.08.53c-.07.53-.21,1.04-.42,1.54s-.47.94-.8,1.33-.72.7-1.18.93-.98.33-1.56.32c-.57-.01-1.04-.14-1.42-.38s-.67-.57-.88-.96-.34-.84-.41-1.32-.06-.96,0-1.45l.08-.54c.07-.52.21-1.03.42-1.52s.47-.94.8-1.33.72-.71,1.18-.93.98-.34,1.56-.33c.57.01,1.04.14,1.42.38s.67.56.88.96.34.84.4,1.32.06.97,0,1.46ZM7.28,58.8l.08-.56c.04-.33.06-.68.05-1.04s-.07-.7-.18-1.01-.28-.57-.53-.77-.58-.31-1-.32c-.44-.01-.82.07-1.15.25s-.6.43-.83.74-.41.65-.55,1.03-.24.75-.29,1.12l-.08.56c-.04.32-.05.67-.04,1.03s.07.7.18,1.02.29.58.53.78.57.32.99.33c.45.01.83-.07,1.16-.25s.6-.43.83-.74.4-.65.54-1.03.23-.76.28-1.14ZM5.72,61.82l1.86,1.76-.81.66-1.83-1.74.78-.68Z"/>
                  <path class="st5" d="M13.63,60l.43-.02c-.05.4-.14.78-.27,1.13s-.3.67-.52.95-.49.49-.82.64-.71.23-1.16.21c-.35-.01-.64-.08-.87-.21s-.42-.3-.55-.52-.22-.47-.26-.75-.05-.58-.02-.89l.69-4.09h1.06l-.69,4.11c-.02.17-.02.34,0,.51s.05.32.11.45.15.25.27.33.29.13.49.14c.42.02.78-.06,1.07-.24s.53-.42.7-.72.29-.65.35-1.04ZM13.23,61.27l.83-4.82h1.07l-1.1,6.34h-1.01l.22-1.52Z"/>
                  <path class="st5" d="M18.3,62.91c-.43,0-.81-.09-1.13-.26s-.58-.39-.78-.67-.34-.61-.43-.97-.11-.74-.08-1.14l.02-.25c.04-.41.14-.81.3-1.2s.37-.75.64-1.06.58-.57.95-.75.77-.27,1.22-.26c.44,0,.81.1,1.1.28s.52.42.69.71.27.62.33.99.05.74.01,1.12l-.06.49h-4.6l.14-.88h3.51s.02-.09.02-.09c.04-.28.02-.55-.05-.81s-.2-.48-.38-.65-.43-.26-.75-.27c-.32-.01-.61.05-.84.2s-.44.33-.6.57-.29.5-.38.79-.16.56-.19.83l-.02.25c-.02.25-.02.5.02.76s.11.49.23.69.27.38.47.51.45.2.74.21c.36,0,.67-.07.96-.23s.54-.37.78-.62l.6.52c-.18.27-.4.5-.66.68s-.53.32-.83.41-.61.13-.94.13Z"/>
                  <path class="st5" d="M24.47,62.91c-.43,0-.81-.09-1.13-.26s-.58-.39-.78-.67-.34-.61-.43-.97-.11-.74-.08-1.14l.02-.25c.04-.41.14-.81.3-1.2s.37-.75.64-1.06.58-.57.95-.75.77-.27,1.22-.26c.44,0,.81.1,1.1.28s.52.42.69.71.27.62.33.99.05.74.01,1.12l-.06.49h-4.6l.14-.88h3.51s.02-.09.02-.09c.04-.28.02-.55-.05-.81s-.2-.48-.38-.65-.43-.26-.75-.27c-.32-.01-.61.05-.84.2s-.44.33-.6.57-.29.5-.38.79-.16.56-.19.83l-.02.25c-.02.25-.02.5.02.76s.11.49.23.69.27.38.47.51.45.2.74.21c.36,0,.67-.07.96-.23s.54-.37.78-.62l.6.52c-.18.27-.4.5-.66.68s-.53.32-.83.41-.61.13-.94.13Z"/>
                  <path class="st5" d="M29.87,57.88l-.86,4.92h-1.06l1.1-6.34h1l-.19,1.42ZM29.38,59.39h-.43c.05-.39.16-.76.3-1.13s.34-.69.58-.99.53-.52.86-.69.72-.25,1.15-.24c.34,0,.62.07.85.2s.41.29.54.5.21.45.26.73.05.57.01.88l-.69,4.15h-1.07l.7-4.17c.03-.25.02-.48-.03-.69s-.14-.37-.29-.49-.37-.19-.65-.2c-.3,0-.56.05-.8.17s-.45.29-.62.5-.32.44-.43.7-.19.51-.23.78Z"/>
                  <path class="st5" d="M38.29,61.08c.04-.24,0-.43-.13-.57s-.28-.24-.48-.31-.39-.13-.58-.18c-.23-.06-.47-.13-.71-.22s-.46-.2-.65-.33-.35-.3-.47-.5-.17-.45-.16-.74c.02-.31.1-.59.25-.83s.35-.44.59-.6.5-.28.79-.36.57-.12.85-.11c.4,0,.76.09,1.09.25s.58.38.78.67.28.65.27,1.07h-1.05c0-.23-.04-.42-.13-.58s-.23-.28-.4-.37-.37-.13-.59-.14c-.21,0-.41.03-.61.1s-.37.17-.51.32-.23.33-.26.55c-.02.17,0,.31.08.41s.18.19.31.26.27.12.42.16.28.08.4.11c.32.09.64.2.95.34s.57.33.76.57.28.56.26.95c-.02.33-.1.62-.26.86s-.36.45-.61.6-.52.27-.82.35-.59.11-.89.11c-.41,0-.79-.09-1.15-.25s-.64-.4-.85-.7-.31-.68-.3-1.12h1.06c0,.26.05.47.16.65s.26.31.45.4.41.14.66.14c.21,0,.42-.02.64-.08s.4-.16.56-.3.25-.33.29-.56Z"/>
                </g>
              </g>
              <rect class="st3" x="68.31" y="48" width="153.59" height="20"/>
              <g class="st1">
                <g class="st1">
                  <path class="st5" d="M6.13,84.6c.04-.26,0-.47-.08-.65s-.21-.32-.38-.44-.35-.22-.55-.3-.41-.16-.61-.23c-.29-.1-.58-.22-.86-.36s-.54-.3-.76-.5-.4-.42-.53-.69-.18-.58-.15-.93c.03-.39.14-.74.33-1.04s.44-.55.73-.75.62-.35.98-.45.71-.14,1.08-.13c.5.01.96.12,1.35.34s.71.51.93.89.32.83.29,1.35h-1.1c.03-.35-.02-.64-.13-.88s-.29-.43-.52-.57-.53-.2-.87-.21c-.31,0-.61.04-.89.14s-.52.26-.72.47-.31.49-.36.82c-.03.23,0,.43.09.59s.22.3.39.42.35.21.54.29.39.15.57.21c.31.11.61.23.91.37s.55.31.77.52.4.44.52.72.16.6.13.98c-.04.41-.15.76-.35,1.05s-.45.54-.75.73-.64.33-1,.42-.73.13-1.1.12c-.38,0-.75-.07-1.09-.18s-.64-.29-.91-.51-.46-.49-.6-.81-.2-.68-.18-1.09h1.1c-.02.28,0,.52.09.73s.2.38.35.52.35.24.57.32.46.11.72.11c.31,0,.61-.04.91-.13s.55-.24.75-.45.33-.48.38-.81Z"/>
                  <path class="st5" d="M11.79,80.46l-.15.83h-3.33l.15-.83h3.33ZM9.85,78.92h1.05l-1.07,6.32c-.01.14,0,.26.01.37s.07.2.14.26.19.1.34.1c.09,0,.17,0,.25-.02s.17-.03.25-.04l-.08.89c-.12.04-.25.06-.38.08s-.26.02-.39.02c-.32,0-.58-.09-.76-.25s-.31-.37-.38-.62-.09-.53-.06-.81l1.06-6.3Z"/>
                  <path class="st5" d="M16.39,82.95l-.12.76h-1c-.21,0-.43,0-.67.04s-.46.09-.67.18-.39.21-.53.37-.23.37-.26.63c-.02.21,0,.39.08.55s.19.27.35.36.34.13.54.13c.27,0,.54-.05.8-.16s.49-.27.69-.47.33-.44.4-.7l.39.52c-.07.26-.2.5-.36.71s-.37.4-.59.56-.47.28-.74.36-.52.13-.79.12c-.36,0-.68-.09-.96-.24s-.51-.37-.68-.64-.24-.6-.21-.96c.02-.4.13-.74.32-1.01s.43-.49.72-.66.62-.28.97-.35.7-.11,1.04-.11h1.29ZM15.74,85.71l.53-3.28c.03-.24,0-.46-.07-.64s-.19-.33-.36-.43-.37-.16-.62-.16c-.22,0-.43.03-.64.11s-.39.19-.54.33-.25.34-.3.56h-1.05c.03-.31.13-.59.3-.82s.39-.43.64-.59.54-.28.83-.35.59-.11.87-.11c.43,0,.8.1,1.11.27s.55.42.71.73.22.69.18,1.12l-.49,2.95c-.04.21-.06.43-.06.65s.02.43.07.64v.1s-1.08,0-1.08,0c-.04-.18-.06-.36-.06-.54s.01-.37.04-.54Z"/>
                  <path class="st5" d="M21.93,80.46l-.15.83h-3.33l.15-.83h3.33ZM19.99,78.92h1.05l-1.07,6.32c-.01.14,0,.26.01.37s.07.2.14.26.19.1.34.1c.09,0,.17,0,.25-.02s.17-.03.25-.04l-.08.89c-.12.04-.25.06-.38.08s-.26.02-.39.02c-.32,0-.58-.09-.76-.25s-.31-.37-.38-.62-.09-.53-.06-.81l1.06-6.3Z"/>
                  <path class="st5" d="M24.74,86.91c-.43,0-.81-.09-1.13-.26s-.58-.39-.78-.67-.34-.61-.43-.97-.11-.74-.08-1.14l.02-.25c.04-.41.14-.81.3-1.2s.37-.75.64-1.06.58-.57.95-.75.77-.27,1.22-.26c.44,0,.81.1,1.1.28s.52.42.69.71.27.62.33.99.05.74.01,1.12l-.06.49h-4.6l.14-.88h3.51s.02-.09.02-.09c.04-.28.02-.55-.05-.81s-.2-.48-.38-.65-.43-.26-.75-.27c-.32-.01-.61.05-.84.2s-.44.33-.6.57-.29.5-.38.79-.16.56-.19.83l-.02.25c-.02.25-.02.5.02.76s.11.49.23.69.27.38.47.51.45.2.74.21c.36,0,.67-.07.96-.23s.54-.37.78-.62l.6.52c-.18.27-.4.5-.66.68s-.53.32-.83.41-.61.13-.94.13Z"/>
                  <path class="st5" d="M30.14,81.88l-.86,4.92h-1.06l1.1-6.34h1l-.19,1.42ZM29.65,83.39h-.43c.05-.39.16-.76.3-1.13s.34-.69.58-.99.53-.52.86-.69.72-.25,1.15-.24c.34,0,.62.07.85.2s.41.29.54.5.21.45.26.73.05.57.01.88l-.69,4.15h-1.07l.7-4.17c.03-.25.02-.48-.03-.69s-.14-.37-.29-.49-.37-.19-.65-.2c-.3,0-.56.05-.8.17s-.45.29-.62.5-.32.44-.43.7-.19.51-.23.78Z"/>
                </g>
              </g>
              <rect class="st3" x="68.31" y="72" width="150.06" height="20"/>
              <g class="st1">
                <g class="st1">
                  <path class="st5" d="M5.05,106.81h-2.16l.15-.91h1.85c.3,0,.58-.05.85-.15s.49-.26.67-.47.29-.48.33-.8c.04-.3,0-.55-.09-.74s-.26-.32-.47-.4-.45-.13-.74-.14h-1.68s-1.32,7.6-1.32,7.6h-1.11l1.48-8.53h2.64c.36.01.68.06.99.15s.56.22.78.4.38.41.5.68.15.61.12,1c-.03.42-.16.77-.4,1.05s-.52.51-.87.67-.71.27-1.09.32l-.45.27ZM4.32,110.8H1.73l.78-.92h1.84c.33,0,.64-.05.92-.18s.51-.3.7-.53.3-.52.34-.87c.04-.3.01-.57-.07-.79s-.22-.39-.42-.51-.45-.18-.76-.2h-1.63s.17-.91.17-.91h2.08s.18.33.18.33c.35.05.65.18.89.37s.42.44.53.73.16.61.13.96c-.04.56-.21,1.02-.5,1.4s-.66.65-1.12.84-.94.28-1.46.27Z"/>
                  <path class="st5" d="M10.42,105.5l-.92,5.3h-1.06l1.1-6.34h1.03l-.15,1.04ZM12.48,104.4l-.1,1.02c-.08-.02-.17-.03-.25-.04s-.17-.02-.25-.02c-.25,0-.48.03-.68.11s-.38.19-.53.34-.29.31-.39.51-.19.41-.25.63l-.33.18c.04-.32.11-.64.21-.97s.24-.64.42-.92.4-.51.67-.68.6-.25.98-.24c.09,0,.17,0,.25.02s.17.04.25.06Z"/>
                  <path class="st5" d="M12.54,107.73l.02-.13c.05-.43.15-.84.32-1.23s.39-.75.66-1.05.6-.55.97-.73.79-.26,1.25-.25c.45,0,.83.1,1.15.29s.58.43.77.73.33.64.41,1.02.1.77.06,1.17v.13c-.06.43-.17.83-.34,1.22s-.39.74-.67,1.04-.6.54-.98.72-.79.25-1.25.24c-.44,0-.82-.1-1.14-.28s-.58-.42-.77-.72-.33-.64-.41-1.01-.1-.76-.06-1.16ZM13.62,107.6v.14c-.04.25-.04.5-.01.77s.09.51.19.74.25.41.44.56.44.22.74.23c.32,0,.61-.06.86-.19s.46-.32.63-.55.31-.49.42-.77.17-.56.21-.84v-.13c.04-.25.04-.5.01-.77s-.09-.52-.19-.75-.25-.42-.44-.57-.44-.22-.74-.23c-.32-.01-.61.05-.86.19s-.46.33-.63.56-.31.49-.41.78-.17.56-.21.84Z"/>
                  <path class="st5" d="M20.82,105.88l-.86,4.92h-1.06l1.1-6.34h1l-.19,1.42ZM20.33,107.39h-.43c.05-.39.16-.76.3-1.13s.34-.69.58-.99.53-.52.86-.69.72-.25,1.15-.24c.34,0,.62.07.85.2s.41.29.54.5.21.45.26.73.05.57.01.88l-.69,4.15h-1.07l.7-4.17c.03-.25.02-.48-.03-.69s-.14-.37-.29-.49-.37-.19-.65-.2c-.3,0-.56.05-.8.17s-.45.29-.62.5-.32.44-.43.7-.19.51-.23.78Z"/>
                  <path class="st5" d="M27.07,104.46l.98,2.3,1.72-2.3h1.31l-2.54,3.18,1.55,3.16h-1.15l-1.05-2.37-1.79,2.37h-1.29l2.61-3.26-1.49-3.08h1.15Z"/>
                </g>
              </g>
              <rect class="st3" x="68.31" y="96" width="144.77" height="20"/>
              <g class="st1">
                <g class="st1">
                  <path class="st5" d="M9.2,126.27l-1.48,8.53h-1.07l-3.05-6.63-1.15,6.63h-1.11l1.48-8.53h1.07l3.06,6.64,1.15-6.64h1.1Z"/>
                  <path class="st5" d="M11.32,126.27l1.4,4.28,2.89-4.28h1.32l-3.83,5.4-.54,3.13h-1.1l.57-3.25-1.91-5.28h1.2Z"/>
                  <path class="st5" d="M21.75,132.09h1.08c-.12.57-.34,1.08-.66,1.51s-.73.76-1.21.99-1.03.34-1.63.32c-.54-.01-.99-.13-1.36-.37s-.65-.54-.86-.93-.34-.8-.4-1.27-.07-.93,0-1.39l.12-.85c.08-.52.22-1.01.42-1.49s.47-.91.8-1.28.72-.67,1.17-.88.96-.32,1.54-.3,1.05.14,1.44.39.68.58.88,1.01.31.91.33,1.46h-1.09c-.01-.36-.07-.68-.17-.97s-.27-.52-.5-.69-.54-.26-.94-.28c-.43-.01-.81.07-1.13.24s-.6.41-.82.7-.41.62-.54.99-.23.73-.29,1.1l-.13.87c-.04.31-.06.64-.05.98s.07.67.17.98.27.56.5.76.55.3.95.31c.44.02.81-.05,1.12-.21s.56-.37.77-.67.36-.64.48-1.03Z"/>
                </g>
              </g>
              <rect class="st3" x="68.31" y="120" width="195.95" height="20"/>
              <g class="st1">
                <g class="st1">
                  <path class="st2" d="M287.76,6.42l-1.45,8.58h-1.06l1.25-7.2-2.27.79.19-1.03,3.15-1.15h.19Z"/>
                  <path class="st2" d="M295.49,12.13l-.16.89h-5.99l.12-.7,4.69-5.85h.93l-1.24,1.75-3.11,3.91h4.75ZM295.31,6.47l-1.48,8.53h-1.06l1.48-8.53h1.05Z"/>
                  <path class="st2" d="M296.16,14.44c0-.19.06-.35.18-.48s.28-.2.47-.2.35.05.47.18.18.28.18.47c0,.19-.06.35-.18.47s-.28.19-.47.19c-.19,0-.34-.05-.47-.17s-.19-.27-.18-.46Z"/>
                  <path class="st2" d="M304.63,14.11l-.14.89h-5.43l.13-.83,3.15-3.07c.21-.21.44-.45.69-.69s.46-.51.64-.79.3-.58.34-.91c.03-.27,0-.51-.08-.73s-.22-.4-.4-.53-.42-.21-.7-.21c-.36-.01-.68.06-.94.21s-.48.36-.64.62-.27.57-.32.91h-1.04c.05-.53.21-.99.48-1.39s.62-.71,1.06-.92.92-.32,1.45-.31c.44,0,.84.1,1.19.28s.62.43.81.76.26.73.22,1.2c-.02.3-.1.6-.23.88s-.29.55-.48.8-.39.5-.61.72-.43.44-.64.64l-2.61,2.48h4.11Z"/>
                  <path class="st2" d="M306.58,8.56l.04-.45c.04-.33.14-.63.3-.91s.39-.49.66-.64.58-.23.93-.23c.33,0,.61.09.85.25s.41.38.52.64.16.56.14.87l-.04.45c-.04.33-.14.63-.3.9s-.39.48-.66.64-.58.23-.92.22c-.33,0-.61-.09-.84-.25s-.41-.37-.53-.64-.17-.55-.15-.87ZM312.71,7.72l-5.16,6.62-.58-.42,5.16-6.61.57.42ZM307.43,8.11l-.05.46c-.01.17,0,.33.05.49s.12.29.23.39.27.16.46.16c.2,0,.38-.04.53-.14s.27-.23.35-.39.15-.33.17-.52l.05-.46c.01-.17,0-.34-.04-.5s-.12-.29-.23-.4-.27-.16-.47-.16c-.2,0-.38.04-.53.14s-.27.23-.36.4-.15.34-.17.53ZM309.78,13.37l.04-.45c.03-.33.13-.63.3-.91s.39-.49.66-.64.58-.23.92-.22c.33,0,.61.09.85.25s.41.38.52.64.16.55.14.87l-.04.46c-.04.33-.14.63-.3.9s-.38.48-.66.64-.58.23-.92.22c-.33,0-.61-.09-.85-.25s-.41-.38-.52-.64-.17-.55-.15-.87ZM310.63,12.91l-.04.47c-.01.17,0,.33.04.49s.12.29.23.39.26.16.46.16c.21,0,.38-.04.53-.14s.27-.23.35-.4.15-.34.17-.53l.05-.46c.01-.17,0-.34-.05-.5s-.12-.29-.23-.4-.27-.16-.46-.16c-.21,0-.38.04-.53.14s-.27.23-.36.39-.15.34-.17.52Z"/>
                </g>
              </g>
              <g class="st1">
                <g class="st1">
                  <path class="st2" d="M247.17,30.42l-1.45,8.58h-1.06l1.25-7.2-2.27.79.19-1.03,3.15-1.15h.19Z"/>
                  <path class="st2" d="M253.71,30.42l-1.45,8.58h-1.06l1.25-7.2-2.27.79.19-1.03,3.15-1.15h.19Z"/>
                  <path class="st2" d="M255.57,38.44c0-.19.06-.35.18-.48s.28-.2.47-.2.35.05.47.18.18.28.18.47c0,.19-.06.35-.18.47s-.28.19-.47.19c-.19,0-.34-.05-.47-.17s-.19-.27-.18-.46Z"/>
                  <path class="st2" d="M259.63,38.1h.09c.51,0,.96-.07,1.35-.21s.73-.36,1.01-.63.51-.6.69-.99.3-.82.37-1.3l.18-1.31c.03-.21.03-.46.02-.73s-.06-.53-.14-.78-.21-.46-.38-.63-.4-.26-.7-.26c-.28-.01-.52.04-.74.16s-.4.28-.56.47-.28.42-.37.67-.15.49-.17.74c-.02.21-.02.43,0,.65s.08.44.17.63.21.36.38.48.37.19.63.2c.25,0,.49-.04.71-.13s.42-.23.6-.4.33-.36.45-.57.21-.43.27-.67h.5c-.04.33-.14.66-.29.98s-.35.61-.6.86-.53.46-.84.61-.65.22-1.02.21c-.38-.01-.71-.1-.98-.26s-.49-.38-.65-.65-.27-.57-.34-.9-.08-.66-.05-1c.04-.4.13-.78.28-1.14s.35-.69.6-.97.55-.5.89-.66.73-.23,1.16-.22c.46.01.85.12,1.15.33s.54.48.7.82.27.7.32,1.1.05.79,0,1.18l-.05.4c-.07.54-.18,1.05-.33,1.54s-.35.93-.6,1.33-.54.75-.89,1.04-.76.52-1.22.68-.99.24-1.59.24h-.13l.09-.92Z"/>
                  <path class="st2" d="M265.98,32.56l.04-.45c.04-.33.14-.63.3-.91s.39-.49.66-.64.58-.23.93-.23c.33,0,.61.09.85.25s.41.38.52.64.16.56.14.87l-.04.45c-.04.33-.14.63-.3.9s-.39.48-.66.64-.58.23-.92.22c-.33,0-.61-.09-.84-.25s-.41-.37-.53-.64-.17-.55-.15-.87ZM272.11,31.72l-5.16,6.62-.58-.42,5.16-6.61.57.42ZM266.83,32.11l-.05.46c-.01.17,0,.33.05.49s.12.29.23.39.27.16.46.16c.2,0,.38-.04.53-.14s.27-.23.35-.39.15-.33.17-.52l.05-.46c.01-.17,0-.34-.04-.5s-.12-.29-.23-.4-.27-.16-.47-.16c-.2,0-.38.04-.53.14s-.27.23-.36.4-.15.34-.17.53ZM269.18,37.37l.04-.45c.03-.33.13-.63.3-.91s.39-.49.66-.64.58-.23.92-.22c.33,0,.61.09.85.25s.41.38.52.64.16.55.14.87l-.04.46c-.04.33-.14.63-.3.9s-.38.48-.66.64-.58.23-.92.22c-.33,0-.61-.09-.85-.25s-.41-.38-.52-.64-.17-.55-.15-.87ZM270.03,36.91l-.04.47c-.01.17,0,.33.04.49s.12.29.23.39.26.16.46.16c.21,0,.38-.04.53-.14s.27-.23.35-.4.15-.34.17-.53l.05-.46c.01-.17,0-.34-.05-.5s-.12-.29-.23-.4-.27-.16-.46-.16c-.21,0-.38.04-.53.14s-.27.23-.36.39-.15.34-.17.52Z"/>
                </g>
              </g>
              <g class="st1">
                <g class="st1">
                  <path class="st2" d="M197.92,60.64c-.04.52-.2.97-.47,1.35s-.63.66-1.07.86-.9.29-1.41.28c-.46,0-.88-.11-1.24-.3s-.64-.47-.83-.82-.27-.77-.23-1.25c.03-.38.13-.71.3-1.01s.4-.55.67-.76.58-.36.92-.47.68-.15,1.04-.15c.44,0,.84.11,1.2.29s.65.45.86.79.3.74.26,1.2ZM198.44,56.64c-.04.46-.19.86-.45,1.2s-.6.6-1,.78-.82.27-1.27.26c-.41,0-.78-.1-1.12-.28s-.6-.43-.79-.74-.27-.69-.25-1.12c.04-.49.18-.92.43-1.28s.58-.64.98-.83.84-.28,1.32-.27c.45,0,.83.11,1.17.3s.59.46.76.8.25.74.21,1.19ZM196.87,60.62c.03-.29,0-.54-.1-.78s-.24-.42-.45-.57-.45-.22-.75-.23c-.33,0-.62.06-.89.21s-.48.35-.65.6-.27.54-.3.86c-.03.3,0,.56.09.78s.24.4.44.53.46.2.76.21c.33,0,.62-.05.89-.19s.48-.32.65-.57.27-.53.31-.86ZM197.37,56.65c.02-.25,0-.48-.08-.69s-.21-.39-.39-.52-.4-.2-.67-.21c-.3,0-.56.06-.8.19s-.42.32-.57.55-.23.49-.26.78c-.03.25,0,.49.08.7s.21.38.38.51.4.2.67.2c.3,0,.56-.06.79-.19s.42-.32.57-.55.24-.49.27-.78Z"/>
                  <path class="st2" d="M199.08,62.44c0-.19.06-.35.18-.48s.28-.2.47-.2.35.05.47.18.18.28.18.47c0,.19-.06.35-.18.47s-.28.19-.47.19c-.19,0-.34-.05-.47-.17s-.19-.27-.18-.46Z"/>
                  <path class="st2" d="M208.67,54.47l-.11.67-4.63,7.86h-1.17l4.62-7.64h-4.45l.14-.89h5.6Z"/>
                  <path class="st2" d="M209.5,56.56l.04-.45c.04-.33.14-.63.3-.91s.39-.49.66-.64.58-.23.93-.23c.33,0,.61.09.85.25s.41.38.52.64.16.56.14.87l-.04.45c-.04.33-.14.63-.3.9s-.39.48-.66.64-.58.23-.92.22c-.33,0-.61-.09-.84-.25s-.41-.37-.53-.64-.17-.55-.15-.87ZM215.63,55.72l-5.16,6.62-.58-.42,5.16-6.61.57.42ZM210.35,56.11l-.05.46c-.01.17,0,.33.05.49s.12.29.23.39.27.16.46.16c.2,0,.38-.04.53-.14s.27-.23.35-.39.15-.33.17-.52l.05-.46c.01-.17,0-.34-.04-.5s-.12-.29-.23-.4-.27-.16-.47-.16c-.2,0-.38.04-.53.14s-.27.23-.36.4-.15.34-.17.53ZM212.7,61.37l.04-.45c.03-.33.13-.63.3-.91s.39-.49.66-.64.58-.23.92-.22c.33,0,.61.09.85.25s.41.38.52.64.16.55.14.87l-.04.46c-.04.33-.14.63-.3.9s-.38.48-.66.64-.58.23-.92.22c-.33,0-.61-.09-.85-.25s-.41-.38-.52-.64-.17-.55-.15-.87ZM213.55,60.91l-.04.47c-.01.17,0,.33.04.49s.12.29.23.39.26.16.46.16c.21,0,.38-.04.53-.14s.27-.23.35-.4.15-.34.17-.53l.05-.46c.01-.17,0-.34-.05-.5s-.12-.29-.23-.4-.27-.16-.46-.16c-.21,0-.38.04-.53.14s-.27.23-.36.39-.15.34-.17.52Z"/>
                </g>
              </g>
              <g class="st1">
                <g class="st1">
                  <path class="st2" d="M194.39,84.64c-.04.52-.2.97-.47,1.35s-.63.66-1.07.86-.9.29-1.41.28c-.46,0-.88-.11-1.24-.3s-.64-.47-.83-.82-.27-.77-.23-1.25c.03-.38.13-.71.3-1.01s.4-.55.67-.76.58-.36.92-.47.68-.15,1.04-.15c.44,0,.84.11,1.2.29s.65.45.86.79.3.74.26,1.2ZM194.91,80.64c-.04.46-.19.86-.45,1.2s-.6.6-1,.78-.82.27-1.27.26c-.41,0-.78-.1-1.12-.28s-.6-.43-.79-.74-.27-.69-.25-1.12c.04-.49.18-.92.43-1.28s.58-.64.98-.83.84-.28,1.32-.27c.45,0,.83.11,1.17.3s.59.46.76.8.25.74.21,1.19ZM193.34,84.62c.03-.29,0-.54-.1-.78s-.24-.42-.45-.57-.45-.22-.75-.23c-.33,0-.62.06-.89.21s-.48.35-.65.6-.27.54-.3.86c-.03.3,0,.56.09.78s.24.4.44.53.46.2.76.21c.33,0,.62-.05.89-.19s.48-.32.65-.57.27-.53.31-.86ZM193.84,80.65c.02-.25,0-.48-.08-.69s-.21-.39-.39-.52-.4-.2-.67-.21c-.3,0-.56.06-.8.19s-.42.32-.57.55-.23.49-.26.78c-.03.25,0,.49.08.7s.21.38.38.51.4.2.67.2c.3,0,.56-.06.79-.19s.42-.32.57-.55.24-.49.27-.78Z"/>
                  <path class="st2" d="M195.55,86.44c0-.19.06-.35.18-.48s.28-.2.47-.2.35.05.47.18.18.28.18.47c0,.19-.06.35-.18.47s-.28.19-.47.19c-.19,0-.34-.05-.47-.17s-.19-.27-.18-.46Z"/>
                  <path class="st2" d="M200.47,82.93l-.87-.23,1.08-4.23h4.26l-.16,1h-3.35l-.66,2.33c.21-.12.43-.22.67-.28s.48-.09.72-.09c.39,0,.73.08,1.01.24s.5.37.68.64.29.57.36.9.08.68.05,1.03c-.04.41-.13.8-.28,1.15s-.36.66-.61.92-.56.46-.91.61-.74.21-1.17.2c-.36,0-.67-.07-.95-.18s-.52-.28-.71-.5-.35-.46-.46-.75-.17-.6-.19-.95h1c.02.28.08.53.18.75s.25.4.44.52.44.2.74.21c.29,0,.54-.05.76-.16s.41-.25.56-.44.28-.4.37-.64.15-.49.18-.75c.02-.23.02-.45-.02-.67s-.11-.41-.22-.59-.25-.31-.43-.42-.4-.16-.66-.17c-.28,0-.53.04-.75.13s-.44.23-.65.4Z"/>
                  <path class="st2" d="M205.97,80.56l.04-.45c.04-.33.14-.63.3-.91s.39-.49.66-.64.58-.23.93-.23c.33,0,.61.09.85.25s.41.38.52.64.16.56.14.87l-.04.45c-.04.33-.14.63-.3.9s-.39.48-.66.64-.58.23-.92.22c-.33,0-.61-.09-.84-.25s-.41-.37-.53-.64-.17-.55-.15-.87ZM212.1,79.72l-5.16,6.62-.58-.42,5.16-6.61.57.42ZM206.82,80.11l-.05.46c-.01.17,0,.33.05.49s.12.29.23.39.27.16.46.16c.2,0,.38-.04.53-.14s.27-.23.35-.39.15-.33.17-.52l.05-.46c.01-.17,0-.34-.04-.5s-.12-.29-.23-.4-.27-.16-.47-.16c-.2,0-.38.04-.53.14s-.27.23-.36.4-.15.34-.17.53ZM209.17,85.37l.04-.45c.03-.33.13-.63.3-.91s.39-.49.66-.64.58-.23.92-.22c.33,0,.61.09.85.25s.41.38.52.64.16.55.14.87l-.04.46c-.04.33-.14.63-.3.9s-.38.48-.66.64-.58.23-.92.22c-.33,0-.61-.09-.85-.25s-.41-.38-.52-.64-.17-.55-.15-.87ZM210.02,84.91l-.04.47c-.01.17,0,.33.04.49s.12.29.23.39.26.16.46.16c.21,0,.38-.04.53-.14s.27-.23.35-.4.15-.34.17-.53l.05-.46c.01-.17,0-.34-.05-.5s-.12-.29-.23-.4-.27-.16-.46-.16c-.21,0-.38.04-.53.14s-.27.23-.36.39-.15.34-.17.52Z"/>
                </g>
              </g>
              <g class="st1">
                <g class="st1">
                  <path class="st2" d="M189.09,108.64c-.04.52-.2.97-.47,1.35s-.63.66-1.07.86-.9.29-1.41.28c-.46,0-.88-.11-1.24-.3s-.64-.47-.83-.82-.27-.77-.23-1.25c.03-.38.13-.71.3-1.01s.4-.55.67-.76.58-.36.92-.47.68-.15,1.04-.15c.44,0,.84.11,1.2.29s.65.45.86.79.3.74.26,1.2ZM189.61,104.64c-.04.46-.19.86-.45,1.2s-.6.6-1,.78-.82.27-1.27.26c-.41,0-.78-.1-1.12-.28s-.6-.43-.79-.74-.27-.69-.25-1.12c.04-.49.18-.92.43-1.28s.58-.64.98-.83.84-.28,1.32-.27c.45,0,.83.11,1.17.3s.59.46.76.8.25.74.21,1.19ZM188.04,108.62c.03-.29,0-.54-.1-.78s-.24-.42-.45-.57-.45-.22-.75-.23c-.33,0-.62.06-.89.21s-.48.35-.65.6-.27.54-.3.86c-.03.3,0,.56.09.78s.24.4.44.53.46.2.76.21c.33,0,.62-.05.89-.19s.48-.32.65-.57.27-.53.31-.86ZM188.54,104.65c.02-.25,0-.48-.08-.69s-.21-.39-.39-.52-.4-.2-.67-.21c-.3,0-.56.06-.8.19s-.42.32-.57.55-.23.49-.26.78c-.03.25,0,.49.08.7s.21.38.38.51.4.2.67.2c.3,0,.56-.06.79-.19s.42-.32.57-.55.24-.49.27-.78Z"/>
                  <path class="st2" d="M190.25,110.44c0-.19.06-.35.18-.48s.28-.2.47-.2.35.05.47.18.18.28.18.47c0,.19-.06.35-.18.47s-.28.19-.47.19c-.19,0-.34-.05-.47-.17s-.19-.27-.18-.46Z"/>
                  <path class="st2" d="M198.72,110.11l-.14.89h-5.43l.13-.83,3.15-3.07c.21-.21.44-.45.69-.69s.46-.51.64-.79.3-.58.34-.91c.03-.27,0-.51-.08-.73s-.22-.4-.4-.53-.42-.21-.7-.21c-.36-.01-.68.06-.94.21s-.48.36-.64.62-.27.57-.32.91h-1.04c.05-.53.21-.99.48-1.39s.62-.71,1.06-.92.92-.32,1.45-.31c.44,0,.84.1,1.19.28s.62.43.81.76.26.73.22,1.2c-.02.3-.1.6-.23.88s-.29.55-.48.8-.39.5-.61.72-.43.44-.64.64l-2.61,2.48h4.11Z"/>
                  <path class="st2" d="M200.67,104.56l.04-.45c.04-.33.14-.63.3-.91s.39-.49.66-.64.58-.23.93-.23c.33,0,.61.09.85.25s.41.38.52.64.16.56.14.87l-.04.45c-.04.33-.14.63-.3.9s-.39.48-.66.64-.58.23-.92.22c-.33,0-.61-.09-.84-.25s-.41-.37-.53-.64-.17-.55-.15-.87ZM206.8,103.72l-5.16,6.62-.58-.42,5.16-6.61.57.42ZM201.52,104.11l-.05.46c-.01.17,0,.33.05.49s.12.29.23.39.27.16.46.16c.2,0,.38-.04.53-.14s.27-.23.35-.39.15-.33.17-.52l.05-.46c.01-.17,0-.34-.04-.5s-.12-.29-.23-.4-.27-.16-.47-.16c-.2,0-.38.04-.53.14s-.27.23-.36.4-.15.34-.17.53ZM203.87,109.37l.04-.45c.03-.33.13-.63.3-.91s.39-.49.66-.64.58-.23.92-.22c.33,0,.61.09.85.25s.41.38.52.64.16.55.14.87l-.04.46c-.04.33-.14.63-.3.9s-.38.48-.66.64-.58.23-.92.22c-.33,0-.61-.09-.85-.25s-.41-.38-.52-.64-.17-.55-.15-.87ZM204.72,108.91l-.04.47c-.01.17,0,.33.04.49s.12.29.23.39.26.16.46.16c.21,0,.38-.04.53-.14s.27-.23.35-.4.15-.34.17-.53l.05-.46c.01-.17,0-.34-.05-.5s-.12-.29-.23-.4-.27-.16-.46-.16c-.21,0-.38.04-.53.14s-.27.23-.36.39-.15.34-.17.52Z"/>
                </g>
              </g>
              <g class="st1">
                <g class="st1">
                  <path class="st2" d="M233.04,126.42l-1.45,8.58h-1.06l1.25-7.2-2.27.79.19-1.03,3.15-1.15h.19Z"/>
                  <path class="st2" d="M239.58,126.42l-1.45,8.58h-1.06l1.25-7.2-2.27.79.19-1.03,3.15-1.15h.19Z"/>
                  <path class="st2" d="M241.44,134.44c0-.19.06-.35.18-.48s.28-.2.47-.2.35.05.47.18.18.28.18.47c0,.19-.06.35-.18.47s-.28.19-.47.19c-.19,0-.34-.05-.47-.17s-.19-.27-.18-.46Z"/>
                  <path class="st2" d="M249.19,126.42l-1.45,8.58h-1.06l1.25-7.2-2.27.79.19-1.03,3.15-1.15h.19Z"/>
                  <path class="st2" d="M251.86,128.56l.04-.45c.04-.33.14-.63.3-.91s.39-.49.66-.64.58-.23.93-.23c.33,0,.61.09.85.25s.41.38.52.64.16.56.14.87l-.04.45c-.04.33-.14.63-.3.9s-.39.48-.66.64-.58.23-.92.22c-.33,0-.61-.09-.84-.25s-.41-.37-.53-.64-.17-.55-.15-.87ZM257.99,127.72l-5.16,6.62-.58-.42,5.16-6.61.57.42ZM252.71,128.11l-.05.46c-.01.17,0,.33.05.49s.12.29.23.39.27.16.46.16c.2,0,.38-.04.53-.14s.27-.23.35-.39.15-.33.17-.52l.05-.46c.01-.17,0-.34-.04-.5s-.12-.29-.23-.4-.27-.16-.47-.16c-.2,0-.38.04-.53.14s-.27.23-.36.4-.15.34-.17.53ZM255.06,133.37l.04-.45c.03-.33.13-.63.3-.91s.39-.49.66-.64.58-.23.92-.22c.33,0,.61.09.85.25s.41.38.52.64.16.55.14.87l-.04.46c-.04.33-.14.63-.3.9s-.38.48-.66.64-.58.23-.92.22c-.33,0-.61-.09-.85-.25s-.41-.38-.52-.64-.17-.55-.15-.87ZM255.91,132.91l-.04.47c-.01.17,0,.33.04.49s.12.29.23.39.26.16.46.16c.21,0,.38-.04.53-.14s.27-.23.35-.4.15-.34.17-.53l.05-.46c.01-.17,0-.34-.05-.5s-.12-.29-.23-.4-.27-.16-.46-.16c-.21,0-.38.04-.53.14s-.27.23-.36.39-.15.34-.17.52Z"/>
                </g>
              </g>
            </g>
          </g>
        </g>
      </g>
    </g>
  </g>
</svg>